And another fine release:

INFO:

Complete name                    : rlf-sentinel.avi
Format                           : AVI
Format/Info                      : Audio Video Interleave
File size                        : 700 MiB
Duration                         : 1h 43mn
Overall bit rate                 : 945 Kbps
Language                         : Polish
Encoder                          : Ralf

Video

Format                           : MPEG-4 Visual
Format profile                   : Advanced Simple@L5
Format settings, BVOP            : 1
Format settings, QPel            : No
Format settings, GMC             : No warppoints
Format settings, Matrix          : Custom
Codec ID                         : XVID
Codec ID/Hint                    : XviD
Duration                         : 1h 43mn
Bit rate                         : 818 Kbps
Width                            : 640 pixels
Height                           : 272 pixels
Display aspect ratio             : 2.35:1
Frame rate                       : 25.000 fps
Color space                      : YUV
Chroma subsampling               : 4:2:0
Bit depth                        : 8 bits
Scan type                        : Progressive
Bits/(Pixel*Frame)               : 0.188
Stream size                      : 606 MiB (87%)
Writing library                  : XviD 1.2.1 (UTC 2008-12-04)

Audio

Format                           : MPEG Audio
Format profile                   : Layer 3
Mode                             : Joint stereo
Mode extension                   : MS Stereo
Codec ID                         : 55
Codec ID/Hint                    : MP3
Duration                         : 1h 43mn
Bit rate mode                    : Variable
Bit rate                         : 113 Kbps
Nominal bit rate                 : 128 Kbps
Channel(s)                       : 2 channels
Sampling rate                    : 48.0 KHz
Stream size                      : 84.0 MiB (12%)
Alignment                        : Aligned on interleaves
Interleave, duration             : 24 ms (0.60 video frame)
Interleave, preload duration     : 514 ms
Writing library                  : LAME3.98r
Encoding settings                : -m j -V 4 -q 2 -lowpass 17 --abr 128

PILOT:

Doswiadczony agent Secret Service, Pete Garrison (Michael Douglas) podejrzewa, iz posrod pracownikow Bialego Domu jest zdrajca. Zostaje jednak zmuszony do porzucenia sledztwa w tej sprawie, poniewaz pojawia sie szantazysta, grozacy ujawnieniem jego romansu z pierwsza dama Stanow Zjednoczonych - Sara Ballentine.


A secret service agent is framed as the mole in an assassination attempt on the president. He must clear his name and foil another assassination attempt while on the run from a relentless FBI agent.

SCREENS:
 
http://image.bayimg.com/gaeikaadj.jpg 
http://image.bayimg.com/gaeilaadj.jpg 
http://image.bayimg.com/gaeimaadj.jpg 
http://image.bayimg.com/gaeioaadj.jpg 
http://image.bayimg.com/gaeipaadj.jpg

